<svg xmlns="http://www.w3.org/2000/svg" viewBox="0 0 400 400" width="400" height="400">
  <defs>
    <radialGradient id="glow" cx="50%" cy="50%" r="50%">
      <stop offset="0%" stop-color="#00d9ff" stop-opacity="0.9"/>
      <stop offset="100%" stop-color="#00d9ff" stop-opacity="0"/>
    </radialGradient>
    <radialGradient id="glowWhite" cx="50%" cy="50%" r="50%">
      <stop offset="0%" stop-color="#ffffff" stop-opacity="0.8"/>
      <stop offset="100%" stop-color="#ffffff" stop-opacity="0"/>
    </radialGradient>
    <filter id="neon">
      <feGaussianBlur stdDeviation="2.5" result="blur"/>
      <feMerge><feMergeNode in="blur"/><feMergeNode in="SourceGraphic"/></feMerge>
    </filter>
  </defs>

  <!-- Virgo constellation mark (transparent background — works on any surface) -->
  <g filter="url(#neon)" fill="none" stroke="#00d9ff" stroke-width="1.8" opacity="0.65">
    <line x1="80" y1="80" x2="140" y2="120"/>
    <line x1="140" y1="120" x2="200" y2="100"/>
    <line x1="200" y1="100" x2="260" y2="140"/>
    <line x1="260" y1="140" x2="310" y2="180"/>
    <line x1="310" y1="180" x2="340" y2="260"/>
    <line x1="260" y1="140" x2="230" y2="210"/>
    <line x1="230" y1="210" x2="250" y2="290"/>
    <line x1="230" y1="210" x2="170" y2="250"/>
    <line x1="170" y1="250" x2="120" y2="300"/>
    <line x1="200" y1="100" x2="160" y2="180" stroke-width="1.2" opacity="0.55"/>
    <line x1="140" y1="120" x2="170" y2="250" stroke-width="1.2" opacity="0.55"/>
    <line x1="310" y1="180" x2="250" y2="290" stroke-width="1.2" opacity="0.55"/>
  </g>

  <line x1="260" y1="140" x2="310" y2="180" stroke="#ffffff" stroke-width="2.4" opacity="0.85" filter="url(#neon)"/>

  <circle cx="80" cy="80" r="5" fill="#ffffff" filter="url(#neon)"/>
  <circle cx="80" cy="80" r="12" fill="url(#glowWhite)" opacity="0.3"/>
  <circle cx="140" cy="120" r="4" fill="#00d9ff" filter="url(#neon)"/>
  <circle cx="140" cy="120" r="10" fill="url(#glow)" opacity="0.4"/>
  <circle cx="200" cy="100" r="5" fill="#ffffff" filter="url(#neon)"/>
  <circle cx="200" cy="100" r="12" fill="url(#glowWhite)" opacity="0.3"/>
  <circle cx="260" cy="140" r="7" fill="#ffffff" filter="url(#neon)"/>
  <circle cx="260" cy="140" r="18" fill="url(#glowWhite)" opacity="0.4"/>
  <circle cx="260" cy="140" r="4" fill="#00d9ff"/>
  <circle cx="310" cy="180" r="4.5" fill="#00d9ff" filter="url(#neon)"/>
  <circle cx="310" cy="180" r="11" fill="url(#glow)" opacity="0.35"/>
  <circle cx="340" cy="260" r="4" fill="#ffffff" filter="url(#neon)"/>
  <circle cx="340" cy="260" r="10" fill="url(#glowWhite)" opacity="0.25"/>
  <circle cx="230" cy="210" r="3.5" fill="#00d9ff" filter="url(#neon)"/>
  <circle cx="230" cy="210" r="9" fill="url(#glow)" opacity="0.3"/>
  <circle cx="250" cy="290" r="4" fill="#ffffff" filter="url(#neon)"/>
  <circle cx="250" cy="290" r="10" fill="url(#glowWhite)" opacity="0.25"/>
  <circle cx="170" cy="250" r="3.5" fill="#00d9ff" filter="url(#neon)"/>
  <circle cx="170" cy="250" r="9" fill="url(#glow)" opacity="0.3"/>
  <circle cx="120" cy="300" r="4" fill="#ffffff" filter="url(#neon)"/>
  <circle cx="120" cy="300" r="10" fill="url(#glowWhite)" opacity="0.25"/>
  <circle cx="160" cy="180" r="3" fill="#00d9ff" filter="url(#neon)"/>
  <circle cx="160" cy="180" r="8" fill="url(#glow)" opacity="0.2"/>
</svg>
